<?xml version="1.0" encoding="UTF-8"?>
<svg version="1.1" xmlns="http://www.w3.org/2000/svg" width="500" height="500">
<path d="M0 0 C3.31622311 0.42789976 5.97608871 1.41343898 8.95703125 2.84765625 C14.40779702 5.29565414 19.95671072 6.77173512 25.75 8.1875 C26.92812256 8.47866699 28.10624512 8.76983398 29.32006836 9.06982422 C54.34104704 15.09476377 79.72962035 19.74308155 105.04858398 24.32421875 C112.10877285 25.61270181 119.11861614 27.07143065 126.125 28.625 C143.4055987 32.99486507 143.4055987 32.99486507 161 34 C163.35880914 31.29527096 163.35880914 31.29527096 165 28 C166.625 25.625 166.625 25.625 168 24 C168.66 24 169.32 24 170 24 C170 23.34 170 22.68 170 22 C179.6684231 13.39477119 190.36007325 7.55215665 203.5390625 7.79296875 C210.00704197 8.33710036 215.12628558 9.84973547 219.8125 14.4375 C224.02539923 18.53862844 228.47792846 19.53031253 234.0546875 21.03125 C237.96268298 22.31663843 239.6430169 23.68276452 242 27 C242 27.66 242 28.32 242 29 C241.11699219 29.21914062 240.23398437 29.43828125 239.32421875 29.6640625 C226.23151246 33.12357458 215.80320129 37.57712518 208.453125 49.51171875 C202.77158181 60.01085913 199.80396406 71.68756894 196.53515625 83.10546875 C191.57943125 100.30863129 185.0403708 115.13881573 175 130 C174.33339355 130.99942627 174.33339355 130.99942627 173.65332031 132.01904297 C172.48962244 133.71770086 171.25052751 135.36420897 170 137 C169.34 137 168.68 137 168 137 C167.7628125 137.56203125 167.525625 138.1240625 167.28125 138.703125 C165.71052303 141.51894042 163.78528536 143.47955416 161.5 145.75 C160.30890625 146.94882812 160.30890625 146.94882812 159.09375 148.171875 C157 150 157 150 155 150 C155 150.66 155 151.32 155 152 C152.525 152.99 152.525 152.99 150 154 C150 154.66 150 155.32 150 156 C147.67764037 157.66929135 145.37069518 159.19427659 142.9375 160.6875 C142.21304688 161.13375732 141.48859375 161.58001465 140.7421875 162.03979492 C120.94978603 174.01204646 100.29793667 180.62035926 77 180 C77 179.34 77 178.68 77 178 C77.51796143 177.764021 78.03592285 177.52804199 78.56958008 177.28491211 C91.1744449 171.51193718 103.25934937 165.91683168 113.44140625 156.28515625 C115 155 115 155 117 155 C117 154.34 117 153.68 117 153 C117.66 153 118.32 153 119 153 C119 152.34 119 151.68 119 151 C119.66 151 120.32 151 121 151 C121.26554687 150.40960938 121.53109375 149.81921875 121.8046875 149.2109375 C123.03090304 146.94283948 124.33351588 145.46647902 126.125 143.625 C138.55807596 129.71241396 142.76813005 112.84802779 146 95 C145.1028125 95.50789063 144.205625 96.01578125 143.28125 96.5390625 C123.50644524 107.53191372 104.5330238 114.3255356 82 108 C75.20506158 105.82213512 68.34410626 102.84067596 63 98 C63 97.01 63 96.02 63 95 C64.05316406 94.90203125 65.10632813 94.8040625 66.19140625 94.703125 C76.14484616 93.69814902 85.41122975 91.87523533 95 89 C93.92711996 87.69742764 93.92711996 87.69742764 91.38305664 87.93408203 C90.23699951 87.95841309 89.09094238 87.98274414 87.91015625 88.0078125 C86.65009766 88.02457031 85.39003906 88.04132813 84.09179688 88.05859375 C81.4402379 88.09921338 78.78995574 88.1541374 76.13867188 88.21484375 C62.24167613 88.36980265 49.38802244 84.79442116 39 75 C33 68.61057692 33 68.61057692 33 66 C32.34 66 31.68 66 31 66 C29.9923048 64.2335343 28.99408286 62.46166177 28 60.6875 C27.443125 59.70136719 26.88625 58.71523437 26.3125 57.69921875 C25 55 25 55 25 52 C28.48920525 52.46970071 31.938685 52.9876381 35.390625 53.68359375 C52.84007705 57.09224177 71.22885756 58 89 58 C86.04244114 57.39181723 83.0842252 56.78749242 80.125 56.1875 C79.22257568 56.00445312 78.32015137 55.82140625 77.39038086 55.6328125 C72.21144856 54.59693549 67.03328263 53.65823715 61.81420898 52.84960938 C46.27424974 50.43681293 32.44991653 45.95993322 20 36 C20 35.34 20 34.68 20 34 C19.11054688 33.61714844 19.11054688 33.61714844 18.203125 33.2265625 C11.54183623 29.51797265 7.97317974 21.43955332 4.625 14.875 C4.27920898 14.20645996 3.93341797 13.53791992 3.57714844 12.84912109 C1.44716516 8.5219929 0.43692396 4.8061636 0 0 Z " fill="#E74C63" transform="translate(129,160)"/>
<path d="M0 0 C-0.87724619 9.47425883 -3.50318182 17.62661442 -8 26 C-8.66 26 -9.32 26 -10 26 C-10.11472656 26.58265625 -10.22945312 27.1653125 -10.34765625 27.765625 C-11.04824062 30.16523135 -11.98192595 31.72860933 -13.4375 33.75 C-13.86933594 34.36359375 -14.30117187 34.9771875 -14.74609375 35.609375 C-15.36677734 36.29773438 -15.36677734 36.29773438 -16 37 C-16.66 37 -17.32 37 -18 37 C-18 37.66 -18 38.32 -18 39 C-18.66 39 -19.32 39 -20 39 C-20 39.66 -20 40.32 -20 41 C-20.66 41 -21.32 41 -22 41 C-22 41.66 -22 42.32 -22 43 C-23.65 43.66 -25.3 44.32 -27 45 C-26.44664739 41.45239493 -25.58061757 39.05518749 -23.625 36.0625 C-19.72393461 29.29465744 -18.21628998 21.36603957 -17.83203125 13.609375 C-17.61830366 10.33490698 -17.409659 7.97183848 -16 5 C-11.12631471 1.89261676 -5.80754095 0 0 0 Z " fill="#E15B70" transform="translate(264,269)"/>
<path d="M0 0 C1.47968324 0.14049518 2.95874516 0.28754826 4.4375 0.4375 C5.67306641 0.55931641 5.67306641 0.55931641 6.93359375 0.68359375 C9 1 9 1 10 2 C11.47396739 2.20768229 12.9549126 2.36716017 14.4375 2.5 C18.78082192 2.89041096 18.78082192 2.89041096 21 4 C23.48099734 4.08649451 25.93344928 4.11565054 28.4140625 4.09765625 C29.50852188 4.09553383 29.50852188 4.09553383 30.62509155 4.09336853 C32.95843585 4.08776531 35.29168464 4.07521235 37.625 4.0625 C39.20572778 4.05748541 40.78645707 4.05292243 42.3671875 4.04882812 C46.24482854 4.03779484 50.12239807 4.02052811 54 4 C54 4.66 54 5.32 54 6 C53.38125 6.268125 52.7625 6.53625 52.125 6.8125 C49.7004767 7.95556848 49.7004767 7.95556848 48 11 C47.34 11.33 46.68 11.66 46 12 C46 11.01 46 10.02 46 9 C43.69 9.66 41.38 10.32 39 11 C38.34 10.34 37.68 9.68 37 9 C39.64 8.01 42.28 7.02 45 6 C44.11328613 6.01571045 43.22657227 6.0314209 42.31298828 6.04760742 C38.97682678 6.09918409 35.64109792 6.13656491 32.3046875 6.16479492 C30.8693975 6.17974586 29.43415209 6.20011424 27.99902344 6.22631836 C8.17998086 6.57874903 8.17998086 6.57874903 0 0 Z " fill="#E07D8A" transform="translate(180,242)"/>
<path d="M0 0 C0.66 0.33 1.32 0.66 2 1 C1.67 1.99 1.34 2.98 1 4 C4.3 4.66 7.6 5.32 11 6 C6.72806649 10.27193351 -1.14319124 9.94058212 -6.90625 10.125 C-10.27330978 10.125 -13.63422159 10.08962132 -17 10 C-17 9.34 -17 8.68 -17 8 C-14.21443118 6.63301613 -11.42068672 5.28365462 -8.625 3.9375 C-7.8309375 3.54755859 -7.036875 3.15761719 -6.21875 2.75585938 C-5.45820313 2.39169922 -4.69765625 2.02753906 -3.9140625 1.65234375 C-2.8614624 1.14175415 -2.8614624 1.14175415 -1.78759766 0.62084961 C-1.19769043 0.41596924 -0.6077832 0.21108887 0 0 Z " fill="#DB6072" transform="translate(223,330)"/>
<path d="M0 0 C3.91841827 1.30613942 6.32640809 2.83129848 9 6 C9 6.66 9 7.32 9 8 C8.05898438 8.26554688 7.11796875 8.53109375 6.1484375 8.8046875 C4.90320313 9.15789062 3.65796875 9.51109375 2.375 9.875 C0.53035156 10.39707031 0.53035156 10.39707031 -1.3515625 10.9296875 C-4.59662019 11.88166374 -7.80010322 12.90711218 -11 14 C-11.66 13.34 -12.32 12.68 -13 12 C-11.68 12 -10.36 12 -9 12 C-9 11.34 -9 10.68 -9 10 C-8.01 9.34 -7.02 8.68 -6 8 C-6.33 6.68 -6.66 5.36 -7 4 C-6.4225 4.185625 -5.845 4.37125 -5.25 4.5625 C-2.79307475 5.04023546 -1.35602466 4.75729364 1 4 C0.67 2.68 0.34 1.36 0 0 Z " fill="#E44F63" transform="translate(362,181)"/>
<path d="M0 0 C2.31 0.33 4.62 0.66 7 1 C-0.22821553 6.79605161 -12.46780654 12.92247033 -22 12 C-21.01 11.67 -20.02 11.34 -19 11 C-19 9.35 -19 7.7 -19 6 C-18.67 6.99 -18.34 7.98 -18 9 C-17.01 8.67 -16.02 8.34 -15 8 C-15 6.68 -15 5.36 -15 4 C-10.125 4.875 -10.125 4.875 -9 6 C-8.67 5.34 -8.34 4.68 -8 4 C-5.35139573 3.40644386 -2.70802678 3.25790731 0 3 C0 2.01 0 1.02 0 0 Z " fill="#DF4F64" transform="translate(256,324)"/>
<path d="M0 0 C0.95531616 0.08302368 0.95531616 0.08302368 1.92993164 0.16772461 C17.27920882 1.4867495 32.60344717 2.46069315 48 3 C48 3.33 48 3.66 48 4 C34.47 4 20.94 4 7 4 C7 3.34 7 2.68 7 2 C4.69 2 2.38 2 0 2 C0 1.34 0 0.68 0 0 Z " fill="#E07E8E" transform="translate(166,215)"/>
<path d="M0 0 C0.99 0 1.98 0 3 0 C2.57074219 1.24652344 2.14148438 2.49304688 1.69921875 3.77734375 C-0.14682449 9.31547347 -1.67654858 14.92534546 -3.1875 20.5625 C-3.46013672 21.57119141 -3.73277344 22.57988281 -4.01367188 23.61914062 C-4.67813075 26.07880419 -5.34019193 28.53908558 -6 31 C-6.33 31 -6.66 31 -7 31 C-7.1831111 25.68977816 -6.78539723 22.0411216 -5 17 C-4.55925346 14.3361473 -4.27806128 11.68792568 -4 9 C-3.34 9 -2.68 9 -2 9 C-2.04125 7.88625 -2.0825 6.7725 -2.125 5.625 C-2 2 -2 2 0 0 Z " fill="#DD7486" transform="translate(331,215)"/>
<path d="M0 0 C0.33 0 0.66 0 1 0 C1 2.97 1 5.94 1 9 C1.99 9 2.98 9 4 9 C4 9.66 4 10.32 4 11 C3.34 11 2.68 11 2 11 C2 11.66 2 12.32 2 13 C1.34 13 0.68 13 0 13 C0 13.66 0 14.32 0 15 C-0.66 15 -1.32 15 -2 15 C-2 15.66 -2 16.32 -2 17 C-3.65 17.66 -5.3 18.32 -7 19 C-6.28503604 14.38523264 -4.5467397 11.22833765 -2.15625 7.28125 C-0.92264714 4.84738489 -0.4160801 2.68560794 0 0 Z " fill="#DD7D8A" transform="translate(244,295)"/>
<path d="M0 0 C0.66 0 1.32 0 2 0 C2.33 2.31 2.66 4.62 3 7 C2.01 7.495 2.01 7.495 1 8 C1.04125 9.27875 1.0825 10.5575 1.125 11.875 C1.1953125 14.0546875 1.1953125 14.0546875 1 16 C0.34 16.66 -0.32 17.32 -1 18 C-3.42130331 14.36804504 -3.21022785 12.61650652 -3.125 8.3125 C-3.09792969 6.54326172 -3.09792969 6.54326172 -3.0703125 4.73828125 C-3.04710937 3.83464844 -3.02390625 2.93101562 -3 2 C-2.01 2 -1.02 2 0 2 C0 1.34 0 0.68 0 0 Z " fill="#E6465D" transform="translate(252,273)"/>
<path d="M0 0 C0 0.99 0 1.98 0 3 C0.99 3.33 1.98 3.66 3 4 C3 4.66 3 5.32 3 6 C-0.52994613 7.17664871 -3.29455413 7.19850603 -7 7 C-7.99 6.34 -8.98 5.68 -10 5 C-9.625 3.0625 -9.625 3.0625 -9 1 C-6.04335481 -0.4783226 -3.25770263 -0.06032783 0 0 Z " fill="#E4485A" transform="translate(234,329)"/>
<path d="M0 0 C-1.40197625 2.8039525 -3.51373596 3.82272657 -6.2578125 5.1796875 C-11.95173451 6.8829975 -18.11490552 6.2758638 -24 6 C-24 5.01 -24 4.02 -24 3 C-22.81921875 2.86722656 -21.6384375 2.73445312 -20.421875 2.59765625 C-18.86456738 2.4194102 -17.30727658 2.24101707 -15.75 2.0625 C-14.58404297 1.93198242 -14.58404297 1.93198242 -13.39453125 1.79882812 C-12.26337891 1.66831055 -12.26337891 1.66831055 -11.109375 1.53515625 C-10.07248535 1.41732788 -10.07248535 1.41732788 -9.01464844 1.29711914 C-6.97630848 1.03275979 -6.97630848 1.03275979 -4.93066406 0.46655273 C-3 0 -3 0 0 0 Z " fill="#CC6472" transform="translate(216,252)"/>
<path d="M0 0 C4.66648682 0.82095601 8.83195097 1.75158572 13 4.0625 C16.720057 6.08345652 20.01768991 6.57224553 24.21484375 6.82421875 C26 7 26 7 27 8 C29.32817964 8.36760731 31.6618385 8.70241581 34 9 C34 9.33 34 9.66 34 10 C23.49597544 10.6178838 12.32261206 7.8952712 3 3 C1.2265625 1.375 1.2265625 1.375 0 0 Z " fill="#DF8392" transform="translate(198,261)"/>
<path d="M0 0 C0 0.66 0 1.32 0 2 C-6.435 2.495 -6.435 2.495 -13 3 C-13 3.66 -13 4.32 -13 5 C-17.1196377 6.29243536 -20.66831683 7.26252625 -25 7 C-19.46159251 0.24159365 -8.13468186 -0.55150385 0 0 Z " fill="#E08090" transform="translate(335,168)"/>
<path d="M0 0 C3.92623415 0.93481765 6.23484554 2.02619965 8.875 5 C12.1885862 8.613219 15.24065641 9.17942352 20 10 C19.34 11.32 18.68 12.64 18 14 C17.01 13.34 16.02 12.68 15 12 C15 11.34 15 10.68 15 10 C14.4225 10.20625 13.845 10.4125 13.25 10.625 C11 11 11 11 8.8125 10.3125 C7 9 7 9 6.625 7.0625 C6.14137349 4.61559751 6.14137349 4.61559751 2.9375 3.25 C1.968125 2.8375 0.99875 2.425 0 2 C0 1.34 0 0.68 0 0 Z " fill="#DE717E" transform="translate(341,170)"/>
<path d="M0 0 C0 1.65 0 3.3 0 5 C-0.66 5 -1.32 5 -2 5 C-2 6.65 -2 8.3 -2 10 C-3.32 10 -4.64 10 -6 10 C-6 6.7 -6 3.4 -6 0 C-3.50907189 -1.24546405 -2.58919267 -0.7767578 0 0 Z " fill="#DF4759" transform="translate(251,294)"/>
<path d="M0 0 C0.66 0.99 1.32 1.98 2 3 C-0.17220355 5.73277221 -1.85827965 7.72888915 -5.3359375 8.5546875 C-7.56274452 8.78650022 -9.76217118 8.94637012 -12 9 C-8.53005564 5.0963126 -4.44775994 2.63411025 0 0 Z " fill="#E07181" transform="translate(237,321)"/>
<path d="M0 0 C-0.58367389 6.30367803 -2.04071619 11.98660063 -4 18 C-4.33 18 -4.66 18 -5 18 C-5.08074502 14.12423917 -4.97064394 10.52064394 -4.375 6.6875 C-4.25125 5.470625 -4.1275 4.25375 -4 3 C-4.66 2.34 -5.32 1.68 -6 1 C-3 0 -3 0 0 0 Z " fill="#E07587" transform="translate(264,269)"/>
<path d="M0 0 C0.66 0 1.32 0 2 0 C-0.13766171 7.244298 -3.22684019 13.46718285 -7 20 C-7.33 20 -7.66 20 -8 20 C-8 18.35 -8 16.7 -8 15 C-7.34 15 -6.68 15 -6 15 C-6 13.68 -6 12.36 -6 11 C-5.34 11 -4.68 11 -4 11 C-4 9.68 -4 8.36 -4 7 C-3.34 7 -2.68 7 -2 7 C-2 5.35 -2 3.7 -2 2 C-1.34 2 -0.68 2 0 2 C0 1.34 0 0.68 0 0 Z " fill="#DC7585" transform="translate(317,261)"/>
<path d="M0 0 C0.33 0.66 0.66 1.32 1 2 C0.38125 2.268125 -0.2375 2.53625 -0.875 2.8125 C-3.2995233 3.95556848 -3.2995233 3.95556848 -5 7 C-5.99 7.495 -5.99 7.495 -7 8 C-7 7.01 -7 6.02 -7 5 C-9.31 5.66 -11.62 6.32 -14 7 C-14.66 6.34 -15.32 5.68 -16 5 C-10.72 3.35 -5.44 1.7 0 0 Z " fill="#DC697B" transform="translate(233,246)"/>
<path d="M0 0 C6.74609618 0.66355044 13.34448534 1.71865793 20 3 C20 3.33 20 3.66 20 4 C14.06 4.495 14.06 4.495 8 5 C8 4.34 8 3.68 8 3 C5.36 2.67 2.72 2.34 0 2 C0 1.34 0 0.68 0 0 Z " fill="#DF7688" transform="translate(196,178)"/>
<path d="M0 0 C2.31 0 4.62 0 7 0 C7.33 0.99 7.66 1.98 8 3 C9.216875 2.979375 10.43375 2.95875 11.6875 2.9375 C14.91977322 2.93175884 17.84934741 3.21233685 21 4 C20.34 4.66 19.68 5.32 19 6 C12.84348386 5.61521774 4.45002166 4.45002166 0 0 Z " fill="#E28593" transform="translate(165,205)"/>
<path d="M0 0 C0 0.66 0 1.32 0 2 C2.97 2 5.94 2 9 2 C8.67 2.66 8.34 3.32 8 4 C3.38 4 -1.24 4 -6 4 C-6 3.34 -6 2.68 -6 2 C-2.25 0 -2.25 0 0 0 Z " fill="#D37988" transform="translate(212,336)"/>
<path d="M0 0 C0.66 0.66 1.32 1.32 2 2 C1.828125 3.98828125 1.828125 3.98828125 1.25 6.3125 C1.05148437 7.11171875 0.85296875 7.9109375 0.6484375 8.734375 C-0.06848466 11.23928374 -0.92741267 13.62498519 -2 16 C-2.33 16 -2.66 16 -3 16 C-3.04241723 13.66705225 -3.04092937 11.33297433 -3 9 C-2.67 8.67 -2.34 8.34 -2 8 C-1.835 6.845 -1.67 5.69 -1.5 4.5 C-1 1 -1 1 0 0 Z " fill="#DD6C80" transform="translate(322,244)"/>
<path d="M0 0 C2.64 0.33 5.28 0.66 8 1 C5.18318021 2.87787986 3.20541985 3.65143573 0 4.5625 C-2.68768048 5.33440823 -5.34646102 6.11548701 -8 7 C-8.66 6.34 -9.32 5.68 -10 5 C-8.68 5 -7.36 5 -6 5 C-6 4.34 -6 3.68 -6 3 C-5.195625 2.87625 -4.39125 2.7525 -3.5625 2.625 C-2.716875 2.41875 -1.87125 2.2125 -1 2 C-0.67 1.34 -0.34 0.68 0 0 Z " fill="#E07889" transform="translate(359,188)"/>
<path d="M0 0 C2.31 0.33 4.62 0.66 7 1 C3.17058011 4.32993034 -1.37522222 6.05324525 -6 8 C-5.1328125 6.046875 -5.1328125 6.046875 -4 4 C-1.875 3.25 -1.875 3.25 0 3 C0 2.01 0 1.02 0 0 Z " fill="#DE7283" transform="translate(256,324)"/>
<path d="M0 0 C1.22589844 0.01353516 1.22589844 0.01353516 2.4765625 0.02734375 C3.41628906 0.04474609 3.41628906 0.04474609 4.375 0.0625 C1.625 3.9375 1.625 3.9375 -0.625 5.0625 C-3.1875 4.25 -3.1875 4.25 -5.625 3.0625 C-5.955 2.4025 -6.285 1.7425 -6.625 1.0625 C-4.21954362 -0.14022819 -2.67503047 -0.03821472 0 0 Z " fill="#E0586C" transform="translate(200.625,256.9375)"/>
<path d="M0 0 C7.78961124 -0.46530864 14.52678392 0.84278299 22 3 C22 3.33 22 3.66 22 4 C14.46783285 3.55761615 7.3197277 2.86094772 0 1 C0 0.67 0 0.34 0 0 Z " fill="#DB7381" transform="translate(253,190)"/>
<path d="M0 0 C0.66 0.33 1.32 0.66 2 1 C1 4 1 4 -1.125 5.1875 C-4.51418301 6.14531259 -7.49471861 6.13746202 -11 6 C-8.88613536 3.88613536 -7.20732397 3.02991678 -4.5 1.8125 C-3.7059375 1.44769531 -2.911875 1.08289063 -2.09375 0.70703125 C-1.4028125 0.47371094 -0.711875 0.24039062 0 0 Z " fill="#E07689" transform="translate(223,330)"/>
<path d="M0 0 C0.99 0.66 1.98 1.32 3 2 C3 2.66 3 3.32 3 4 C1.1015625 5.5078125 1.1015625 5.5078125 -1.375 7.125 C-2.59316406 7.93324219 -2.59316406 7.93324219 -3.8359375 8.7578125 C-6 10 -6 10 -8 10 C-8 9.01 -8 8.02 -8 7 C-6.68 7 -5.36 7 -4 7 C-3.67 5.68 -3.34 4.36 -3 3 C-2.34 3 -1.68 3 -1 3 C-0.67 2.01 -0.34 1.02 0 0 Z " fill="#E1738A" transform="translate(276,312)"/>
<path d="M0 0 C4.02992782 0.55312735 8.02022924 1.1558062 12 2 C12 2.33 12 2.66 12 3 C9.03 3 6.06 3 3 3 C2.67 4.32 2.34 5.64 2 7 C0.5393715 4.35261084 0 3.10551666 0 0 Z " fill="#DF92A1" transform="translate(154,212)"/>
<path d="M0 0 C0.33 0.66 0.66 1.32 1 2 C-0.25 4.5625 -0.25 4.5625 -2 7 C-2.99 7.33 -3.98 7.66 -5 8 C-5.33 8.66 -5.66 9.32 -6 10 C-6.99 9.67 -7.98 9.34 -9 9 C-7.625 7 -7.625 7 -6 5 C-5.34 5 -4.68 5 -4 5 C-4 4.34 -4 3.68 -4 3 C-2 1.375 -2 1.375 0 0 Z " fill="#DB7384" transform="translate(303,179)"/>
<path d="M0 0 C-1.28497537 2.56995074 -2.49912373 2.90434463 -5.0625 4.125 C-5.79597656 4.47820312 -6.52945313 4.83140625 -7.28515625 5.1953125 C-7.85105469 5.46085937 -8.41695312 5.72640625 -9 6 C-10.32 4.68 -11.64 3.36 -13 2 C-11.39658445 1.66307215 -9.79223445 1.33058907 -8.1875 1 C-7.29417969 0.814375 -6.40085938 0.62875 -5.48046875 0.4375 C-3 0 -3 0 0 0 Z " fill="#E26F80" transform="translate(216,252)"/>
<path d="M0 0 C9.41002278 0.96355353 9.41002278 0.96355353 14 2 C13.67 2.66 13.34 3.32 13 4 C8.18061476 4.23509196 4.53701494 3.45184478 0 2 C0 1.34 0 0.68 0 0 Z " fill="#DC7280" transform="translate(181,175)"/>
<path d="M0 0 C0.33 0.99 0.66 1.98 1 3 C-1.64 3.66 -4.28 4.32 -7 5 C-7.33 3.68 -7.66 2.36 -8 1 C-5.07175348 0.02391783 -3.04386724 -0.08226668 0 0 Z " fill="#DD6072" transform="translate(340,169)"/>
<path d="M0 0 C0.33 0.99 0.66 1.98 1 3 C4.3 2.67 7.6 2.34 11 2 C6.49667324 5.00221784 2.42232421 6.31896025 -3 6 C-2.01 5.67 -1.02 5.34 0 5 C0 3.35 0 1.7 0 0 Z " fill="#DC7181" transform="translate(237,330)"/>
<path d="M0 0 C4.29 1.32 8.58 2.64 13 4 C10 6 10 6 7.7734375 5.64453125 C6.98195312 5.36996094 6.19046875 5.09539062 5.375 4.8125 C4.57835937 4.55082031 3.78171875 4.28914062 2.9609375 4.01953125 C1 3 1 3 0 0 Z " fill="#DD7788" transform="translate(137,163)"/>
<path d="M0 0 C0.33 0 0.66 0 1 0 C1.28571429 8.57142857 1.28571429 8.57142857 -1 12 C-1.66 12 -2.32 12 -3 12 C-2.49202991 7.6822542 -1.80317221 3.96697886 0 0 Z " fill="#DB7281" transform="translate(270,276)"/>
<path d="M0 0 C2.97 0 5.94 0 9 0 C9 0.66 9 1.32 9 2 C7.02 2 5.04 2 3 2 C2.67 2.99 2.34 3.98 2 5 C1.34 4.67 0.68 4.34 0 4 C0 2.68 0 1.36 0 0 Z " fill="#D74C60" transform="translate(157,215)"/>
<path d="M0 0 C3.91841827 1.30613942 6.32640809 2.83129848 9 6 C9 6.66 9 7.32 9 8 C7.68 8 6.36 8 5 8 C4.87625 7.071875 4.87625 7.071875 4.75 6.125 C4.18741541 3.81562433 4.18741541 3.81562433 1.9375 2.75 C1.298125 2.5025 0.65875 2.255 0 2 C0 1.34 0 0.68 0 0 Z " fill="#D37283" transform="translate(362,181)"/>
<path d="M0 0 C8.57142857 0.85714286 8.57142857 0.85714286 12 3 C11.071875 2.979375 10.14375 2.95875 9.1875 2.9375 C5.97713989 2.84230396 5.97713989 2.84230396 3 4 C2.01 3.67 1.02 3.34 0 3 C0 2.01 0 1.02 0 0 Z " fill="#DE7589" transform="translate(154,169)"/>
<path d="M0 0 C1.32 0 2.64 0 4 0 C4 0.66 4 1.32 4 2 C4.66 2.33 5.32 2.66 6 3 C6.625 6.0625 6.625 6.0625 7 9 C4.03595495 6.19195732 1.55500981 3.81684226 0 0 Z " fill="#E28290" transform="translate(139,183)"/>
<path d="M0 0 C0.598125 0.33 1.19625 0.66 1.8125 1 C4.05386471 2.20787988 4.05386471 2.20787988 7 2 C6.67 3.98 6.34 5.96 6 8 C5.01 7.34 4.02 6.68 3 6 C3 5.34 3 4.68 3 4 C2.34 4 1.68 4 1 4 C0.67 2.68 0.34 1.36 0 0 Z " fill="#E0788D" transform="translate(159,222)"/>
<path d="M0 0 C9.41002278 0.96355353 9.41002278 0.96355353 14 2 C14 2.33 14 2.66 14 3 C10.04 3 6.08 3 2 3 C2 2.34 2 1.68 2 1 C1.34 0.67 0.68 0.34 0 0 Z " fill="#E28695" transform="translate(167,172)"/>
<path d="M0 0 C3.37462715 0.54723683 5.08235 1.0549 8 3 C7.21625 3.103125 6.4325 3.20625 5.625 3.3125 C2.66954819 3.77595022 2.66954819 3.77595022 1 7 C0.67 4.69 0.34 2.38 0 0 Z " fill="#E097A2" transform="translate(129,160)"/>
<path d="M0 0 C1.21236328 0.02707031 1.21236328 0.02707031 2.44921875 0.0546875 C3.37154297 0.08949219 3.37154297 0.08949219 4.3125 0.125 C2.05349507 2.38400493 1.37066925 2.46958029 -1.6875 2.8125 C-2.739375 2.94205078 -2.739375 2.94205078 -3.8125 3.07421875 C-5.6875 3.125 -5.6875 3.125 -7.6875 2.125 C-4.48369983 -0.01086678 -3.66810033 -0.10632175 0 0 Z " fill="#E16D7F" transform="translate(317.6875,171.875)"/>
<path d="M0 0 C2.97 0.33 5.94 0.66 9 1 C9.33 1.99 9.66 2.98 10 4 C5.78087253 3.5205537 3.20336822 2.83374881 0 0 Z " fill="#DF7C8C" transform="translate(180,242)"/>
<path d="M0 0 C0 1.65 0 3.3 0 5 C-0.99 5.495 -0.99 5.495 -2 6 C-3.32 4.35 -4.64 2.7 -6 1 C-3 0 -3 0 0 0 Z " fill="#D16F81" transform="translate(264,269)"/>
<path d="M0 0 C1.98 0 3.96 0 6 0 C3.31158141 2.25245881 1.35358125 3.88213958 -2 5 C-2 4.01 -2 3.02 -2 2 C-1.34 2 -0.68 2 0 2 C0 1.34 0 0.68 0 0 Z " fill="#E37C8F" transform="translate(270,253)"/>
<path d="M0 0 C0.99 0.33 1.98 0.66 3 1 C3.33 2.65 3.66 4.3 4 6 C3.01 6.495 3.01 6.495 2 7 C1.34 6.67 0.68 6.34 0 6 C-0.6875 3.5 -0.6875 3.5 -1 1 C-0.67 0.67 -0.34 0.34 0 0 Z " fill="#E2435C" transform="translate(139,177)"/>
<path d="M0 0 C0.33 0.66 0.66 1.32 1 2 C0.06553465 4.03144641 -0.93224776 6.03533587 -2 8 C-2.66 8 -3.32 8 -4 8 C-4 8.66 -4 9.32 -4 10 C-4.66 9.67 -5.32 9.34 -6 9 C-4.02 6.03 -2.04 3.06 0 0 Z " fill="#E07D8F" transform="translate(262,294)"/>
<path d="M0 0 C1.31571603 0.2547514 2.62760376 0.52934141 3.9375 0.8125 C4.66839844 0.96332031 5.39929688 1.11414063 6.15234375 1.26953125 C6.76207031 1.51058594 7.37179688 1.75164062 8 2 C8.33 2.99 8.66 3.98 9 5 C5.22454612 3.90931332 2.52956528 3.0916909 0 0 Z " fill="#E38998" transform="translate(156,200)"/>
<path d="M0 0 C5.75 1.625 5.75 1.625 8 5 C4.5625 4.1875 4.5625 4.1875 1 3 C0.67 2.01 0.34 1.02 0 0 Z " fill="#E4899A" transform="translate(341,170)"/>
<path d="M0 0 C1.65 0 3.3 0 5 0 C4.34 1.32 3.68 2.64 3 4 C1.68 4 0.36 4 -1 4 C-0.67 2.68 -0.34 1.36 0 0 Z " fill="#D2495E" transform="translate(132,163)"/>
<path d="M0 0 C1.32 0 2.64 0 4 0 C4 2.31 4 4.62 4 7 C0 2.25 0 2.25 0 0 Z " fill="#DB6A7B" transform="translate(135,176)"/>
<path d="M0 0 C0.66 0 1.32 0 2 0 C3.85776765 3.13498292 4.20140476 5.37471432 4 9 C1.49701566 6.06171403 0.53069061 3.82097239 0 0 Z " fill="#DF7E94" transform="translate(131,167)"/>
</svg>
